name analog
datacolumns 19
datarows 51
range 0.4835 0.5085000000000001
endheader
time	ground_force_vx	ground_force_vy	ground_force_vz	ground_force_px	ground_force_py	ground_force_pz	l_ground_force_vx	l_ground_force_vy	l_ground_force_vz	l_ground_force_px	l_ground_force_py	l_ground_force_pz	ground_torque_x	ground_torque_y	ground_torque_z	l_ground_torque_x	l_ground_torque_y	l_ground_torque_z
0.4835	-0.0	-0.0	-0.0	-60.37532424926758	130.06143188476562	-1060.4459228515625	-37.22851943969727	-159.06735229492188	-836.5698852539062	-0.0	-0.0	-0.0	-0.0	-0.0	-0.0	157636.453125	109127.2734375	-35073.79296875
0.484	-0.0	-0.0	-0.0	-62.64485168457031	126.33859252929688	-1025.755859375	-40.23421478271485	-152.13912963867188	-800.4546508789062	-0.0	-0.0	-0.0	-0.0	-0.0	-0.0	150075.65625	105177.453125	-34780.95703125
0.4845	-0.0	-0.0	-0.0	-62.28779983520508	123.33763122558594	-994.9555053710938	-41.21990203857422	-144.16990661621094	-766.7431030273438	-0.0	-0.0	-0.0	-0.0	-0.0	-0.0	143399.09375	101223.671875	-33890.2890625
0.485	-0.0	-0.0	-0.0	-60.99909591674805	120.63278198242188	-963.8789672851562	-40.47282409667969	-135.4486846923828	-730.2390747070312	-0.0	-0.0	-0.0	-0.0	-0.0	-0.0	136788.765625	96874.2265625	-32548.775390625
0.4855	-0.0	-0.0	-0.0	-58.57475280761719	117.97987365722656	-933.2681884765624	-38.52135467529297	-127.6352310180664	-695.67431640625	-0.0	-0.0	-0.0	-0.0	-0.0	-0.0	129730.7890625	92650.0703125	-31191.353515625
0.486	-0.0	-0.0	-0.0	-56.63069152832031	114.9675750732422	-902.2033081054688	-35.3491096496582	-120.2268295288086	-660.1873168945312	-0.0	-0.0	-0.0	-0.0	-0.0	-0.0	122995.7109375	88051.7109375	-29483.455078125
0.4865	-0.0	-0.0	-0.0	-54.59683227539063	111.70197296142578	-869.8552856445312	-32.13471221923828	-113.83979034423828	-622.4830932617188	-0.0	-0.0	-0.0	-0.0	-0.0	-0.0	115338.6328125	83864.265625	-27698.654296875
0.487	-0.0	-0.0	-0.0	-52.13809967041016	107.99779510498048	-836.12353515625	-28.37006378173828	-107.76319885253906	-587.2894897460938	-0.0	-0.0	-0.0	-0.0	-0.0	-0.0	108236.09375	79449.640625	-25769.87890625
0.4875	-0.0	-0.0	-0.0	-50.52120208740234	104.60004425048828	-802.401123046875	-25.3044490814209	-102.56930541992188	-554.0127563476562	-0.0	-0.0	-0.0	-0.0	-0.0	-0.0	101653.984375	74968.6171875	-24105.244140625
0.488	-0.0	-0.0	-0.0	-49.22747421264648	101.88719177246094	-770.3516845703125	-21.65648651123047	-97.83277893066406	-522.4613647460938	-0.0	-0.0	-0.0	-0.0	-0.0	-0.0	95341.7109375	71355.8984375	-22460.673828125
0.4885	-0.0	-0.0	-0.0	-47.84458541870117	99.22459411621094	-734.8130493164062	-17.686857223510742	-94.47667694091795	-493.1773986816406	-0.0	-0.0	-0.0	-0.0	-0.0	-0.0	89037.1640625	67896.0	-20821.82421875
0.489	-0.0	-0.0	-0.0	-46.25658798217773	96.22195434570312	-700.9794921875	-13.124345779418944	-90.27117156982422	-466.948974609375	-0.0	-0.0	-0.0	-0.0	-0.0	-0.0	83731.6796875	65142.3046875	-18963.845703125
0.4895	-0.0	-0.0	-0.0	-44.2254753112793	93.7651824951172	-668.4889526367188	-8.905187606811523	-86.26311492919922	-440.76361083984375	-0.0	-0.0	-0.0	-0.0	-0.0	-0.0	78643.484375	62242.671875	-17266.853515625
0.49	-0.0	-0.0	-0.0	-41.99092483520508	91.52129364013672	-634.54052734375	-5.623239040374756	-82.74185180664062	-416.9774475097656	-0.0	-0.0	-0.0	-0.0	-0.0	-0.0	73827.9296875	59552.9140625	-15728.8154296875
0.4905	-0.0	-0.0	-0.0	-40.11772918701172	89.0916976928711	-600.2385864257812	-3.2284975051879883	-78.93280792236328	-390.3830261230469	-0.0	-0.0	-0.0	-0.0	-0.0	-0.0	68882.9453125	57058.640625	-14374.63671875
0.491	-0.0	-0.0	-0.0	-37.67047500610352	87.4336929321289	-569.5132446289062	-0.8720499277114868	-75.08509826660156	-367.0374755859375	-0.0	-0.0	-0.0	-0.0	-0.0	-0.0	63977.83984375	54375.6796875	-13028.2158203125
0.4915	-0.0	-0.0	-0.0	-35.223472595214844	85.71682739257812	-540.813232421875	1.4843454360961914	-70.9076919555664	-344.19464111328125	-0.0	-0.0	-0.0	-0.0	-0.0	-0.0	59523.390625	51500.75390625	-11563.263671875
0.492	-0.0	-0.0	-0.0	-31.821678161621094	84.2017822265625	-511.49114990234375	4.86710786819458	-66.33912658691406	-321.162841796875	-0.0	-0.0	-0.0	-0.0	-0.0	-0.0	54785.19921875	48790.875	-10039.0302734375
0.4925	-0.0	-0.0	-0.0	-29.36243057250977	82.94192504882812	-485.0527038574219	8.048543930053711	-61.4577751159668	-299.111328125	-0.0	-0.0	-0.0	-0.0	-0.0	-0.0	50850.84765625	45678.50390625	-8442.544921875
0.493	-0.0	-0.0	-0.0	-26.303302764892575	81.5282211303711	-457.9709777832031	11.67316722869873	-56.55020904541016	-278.4662170410156	-0.0	-0.0	-0.0	-0.0	-0.0	-0.0	47084.12890625	43015.4296875	-6985.28271484375
0.4935	-0.0	-0.0	-0.0	-23.60120391845703	79.47834777832031	-435.0101013183594	14.841898918151855	-51.41547393798828	-257.8191833496094	-0.0	-0.0	-0.0	-0.0	-0.0	-0.0	43729.60546875	40185.55078125	-5414.13427734375
0.494	-0.0	-0.0	-0.0	-21.24462509155273	77.07200622558594	-412.7124938964844	18.90870475769043	-48.09734344482422	-241.560546875	-0.0	-0.0	-0.0	-0.0	-0.0	-0.0	40724.5625	37348.2265625	-3897.216796875
0.4945	-0.0	-0.0	-0.0	-20.54401016235352	74.28385925292969	-390.0110168457031	22.076416015625	-44.387542724609375	-223.6563415527344	-0.0	-0.0	-0.0	-0.0	-0.0	-0.0	37951.39453125	34634.95703125	-2491.55615234375
0.495	-0.0	-0.0	-0.0	-19.91935920715332	71.66089630126953	-372.8573913574219	23.72380828857422	-42.29342269897461	-206.74755859375	-0.0	-0.0	-0.0	-0.0	-0.0	-0.0	34786.90234375	32095.82421875	-1557.6024169921875
0.4955	-0.0	-0.0	-0.0	-18.976598739624023	69.21620178222656	-354.5438537597656	24.19289207458496	-40.67851257324219	-193.3813934326172	-0.0	-0.0	-0.0	-0.0	-0.0	-0.0	32339.951171875	29833.400390625	-1137.332275390625
0.496	-0.0	-0.0	-0.0	-18.84947204589844	66.55536651611328	-336.5844116210937	24.003589630126957	-39.934268951416016	-178.86732482910156	-0.0	-0.0	-0.0	-0.0	-0.0	-0.0	29940.189453125	27716.275390625	-815.3131713867188
0.4965	-0.0	-0.0	-0.0	-18.441635131835938	63.856666564941406	-319.4772033691406	23.3569393157959	-39.26546478271485	-165.7491912841797	-0.0	-0.0	-0.0	-0.0	-0.0	-0.0	27903.751953125	25783.02734375	-577.9475708007812
0.497	-0.0	-0.0	-0.0	-18.553977966308597	61.31027603149414	-304.34326171875	22.013425827026367	-38.7356071472168	-154.37677001953125	-0.0	-0.0	-0.0	-0.0	-0.0	-0.0	25773.390625	24144.017578125	-574.2705078125
0.4975	-0.0	-0.0	-0.0	-18.98624420166016	59.81986618041992	-290.3226928710937	20.63189125061035	-37.83924102783203	-145.44775390625	-0.0	-0.0	-0.0	-0.0	-0.0	-0.0	23991.328125	22502.2734375	-626.0596923828125
0.498	-0.0	-0.0	-0.0	-19.777812957763672	57.95915603637695	-278.0592041015625	18.871065139770508	-37.271751403808594	-135.8292999267578	-0.0	-0.0	-0.0	-0.0	-0.0	-0.0	22322.607421875	21122.69921875	-631.5907592773438
0.4985	-0.0	-0.0	-0.0	-20.007343292236328	57.00569152832031	-269.637939453125	17.653446197509766	-36.228214263916016	-128.24490356445312	-0.0	-0.0	-0.0	-0.0	-0.0	-0.0	21119.61328125	19883.09765625	-776.9400634765625
0.499	-0.0	-0.0	-0.0	-21.07774543762207	55.83335876464844	-260.7420654296875	16.13178062438965	-34.81227111816406	-119.65209197998048	-0.0	-0.0	-0.0	-0.0	-0.0	-0.0	19616.43359375	18506.150390625	-772.1124267578125
0.4995	-0.0	-0.0	-0.0	-22.37799453735352	55.45294570922852	-251.87210083007807	15.435676574707031	-33.175323486328125	-113.0316162109375	-0.0	-0.0	-0.0	-0.0	-0.0	-0.0	18617.18359375	17353.982421875	-743.641357421875
0.5	-0.0	-0.0	-0.0	-23.78158187866211	54.39744186401367	-242.68988037109372	14.520873069763184	-31.39555931091309	-106.19659423828124	-0.0	-0.0	-0.0	-0.0	-0.0	-0.0	17335.904296875	16254.63671875	-654.88671875
0.5005000000000001	-0.0	-0.0	-0.0	-24.443679809570312	53.51085662841797	-238.04327392578125	13.633597373962402	-29.74105262756348	-100.40850830078124	-0.0	-0.0	-0.0	-0.0	-0.0	-0.0	16333.58203125	15536.8583984375	-553.6307373046875
0.501	-0.0	-0.0	-0.0	-24.42948341369629	52.39957046508789	-232.9502716064453	12.989089012145996	-27.96082305908203	-92.4337387084961	-0.0	-0.0	-0.0	-0.0	-0.0	-0.0	15579.72265625	14528.5380859375	-702.0323486328125
0.5015000000000001	-0.0	-0.0	-0.0	-23.8049259185791	50.494136810302734	-227.1864776611328	11.961791038513184	-26.56182098388672	-88.68450927734375	-0.0	-0.0	-0.0	-0.0	-0.0	-0.0	14575.48828125	13714.541015625	-655.5850219726562
0.502	-0.0	-0.0	-0.0	-21.916990280151367	48.76871490478516	-224.5654296875	11.42940902709961	-24.56764793395996	-83.90880584716797	-0.0	-0.0	-0.0	-0.0	-0.0	-0.0	13844.20703125	12952.0537109375	-647.8278198242188
0.5025000000000001	-0.0	-0.0	-0.0	-19.186573028564453	47.127220153808594	-224.2442626953125	11.17755889892578	-22.690433502197266	-83.68278503417969	-0.0	-0.0	-0.0	-0.0	-0.0	-0.0	13708.5263671875	12778.3955078125	-477.264404296875
0.503	-0.0	-0.0	-0.0	-16.65970802307129	45.723899841308594	-228.212158203125	11.014652252197266	-20.79253196716309	-82.43153381347656	-0.0	-0.0	-0.0	-0.0	-0.0	-0.0	13585.9765625	12273.96484375	-222.35479736328125
0.5035000000000001	-0.0	-0.0	-0.0	-13.641559600830078	44.58761596679688	-231.0684814453125	10.993165969848633	-19.268728256225582	-82.89464569091797	-0.0	-0.0	-0.0	-0.0	-0.0	-0.0	13816.3662109375	12481.404296875	-189.7715301513672
0.504	-0.0	-0.0	-0.0	-10.824271202087402	42.54497909545898	-236.48345947265625	11.303234100341797	-17.8115234375	-85.1929931640625	-0.0	-0.0	-0.0	-0.0	-0.0	-0.0	14204.904296875	12654.37890625	92.5068588256836
0.5045000000000001	-0.0	-0.0	-0.0	-8.497129440307617	41.3636474609375	-240.42791748046875	11.791338920593262	-17.207929611206055	-87.75405883789062	-0.0	-0.0	-0.0	-0.0	-0.0	-0.0	14492.4970703125	12924.427734375	189.3758544921875
0.505	-0.0	-0.0	-0.0	-7.017362594604492	41.364864349365234	-248.10574340820312	11.324952125549316	-16.537893295288086	-90.54845428466795	-0.0	-0.0	-0.0	-0.0	-0.0	-0.0	14913.568359375	13156.25	246.18653869628903
0.5055000000000001	-0.0	-0.0	-0.0	-6.118528842926025	41.69782638549805	-255.9692230224609	11.77021312713623	-16.229576110839844	-95.957275390625	-0.0	-0.0	-0.0	-0.0	-0.0	-0.0	15803.375	13754.0673828125	471.6138916015625
0.506	-0.0	-0.0	-0.0	-4.943515777587891	42.71504592895508	-264.4103698730469	12.425830841064451	-16.147722244262695	-101.15908813476562	-0.0	-0.0	-0.0	-0.0	-0.0	-0.0	16676.927734375	14300.994140625	355.61688232421875
0.5065000000000001	-0.0	-0.0	-0.0	-4.503279685974121	44.84806442260742	-275.64959716796875	12.483439445495604	-16.251190185546875	-108.75389862060548	-0.0	-0.0	-0.0	-0.0	-0.0	-0.0	17717.033203125	15319.1337890625	489.6500549316406
0.507	-0.0	-0.0	-0.0	-3.421135663986206	47.333927154541016	-284.8929748535156	12.77435302734375	-16.713891983032227	-115.71336364746094	-0.0	-0.0	-0.0	-0.0	-0.0	-0.0	19072.21484375	16137.5068359375	380.1423950195313
0.5075000000000001	-0.0	-0.0	-0.0	-2.4244027137756348	50.86735534667969	-298.2503356933594	12.925949096679688	-17.75265884399414	-125.48931121826172	-0.0	-0.0	-0.0	-0.0	-0.0	-0.0	20891.640625	17359.91015625	365.8673400878906
0.508	-0.0	-0.0	-0.0	-1.80004620552063	54.568641662597656	-312.2309265136719	13.416115760803224	-19.20719718933105	-137.29840087890625	-0.0	-0.0	-0.0	-0.0	-0.0	-0.0	22949.16015625	18847.6875	294.3523254394531
0.5085000000000001	-0.0	-0.0	-0.0	-1.4847389459609983	57.902950286865234	-325.7769775390625	13.572750091552734	-21.30609703063965	-150.93397521972656	-0.0	-0.0	-0.0	-0.0	-0.0	-0.0	24989.26171875	20943.541015625	-49.80498504638672
